<svg width="103" height="30" viewBox="0 0 103 30" fill="none" xmlns="http://www.w3.org/2000/svg">
<path d="M3.92114 8.78283H6.31256L6.36048 11.1979H6.45823C7.31947 9.57188 8.89756 8.47169 10.7868 8.47169C14.3257 8.47169 16.3587 11.4848 16.3587 15.1674C16.3587 18.8021 14.2778 21.9347 10.7632 21.9347C8.53914 21.9347 7.39103 20.7393 6.76938 19.4717H6.67354V26H3.92625L3.92114 8.78283ZM10.1147 19.3043C12.1713 19.3043 13.5584 17.654 13.5584 15.2632C13.5584 13.0628 12.4083 10.9826 10.2105 10.9826C8.05805 10.9826 6.76682 12.9197 6.76682 15.1674C6.76682 17.4151 7.91685 19.3043 10.1147 19.3043ZM24.3431 8.47169C27.8819 8.47169 30.106 11.15 30.106 14.809V16.3391H20.6125C20.8278 18.1568 22.5254 19.4001 24.6536 19.4001C26.2559 19.4001 27.404 18.5868 28.2404 17.7262L29.867 19.3522C28.48 21.0977 26.5192 21.911 24.4625 21.911C21.1147 21.911 17.9099 19.5196 17.9099 15.2869C17.9099 11.4848 20.7799 8.47169 24.3431 8.47169V8.47169ZM27.4277 14.1854C27.3798 12.392 26.3039 10.9813 24.2236 10.9813C22.4295 10.9813 20.8278 12.2725 20.6125 14.1854H27.4277ZM32.2834 8.78155H34.7942V11.1251H34.8658C35.4875 9.47476 36.396 8.78155 38.2137 8.78155H39.0506V11.5288H37.2809C35.7028 11.5288 35.0332 12.4616 35.0332 14.1828V21.5762H32.2859L32.2834 8.78155ZM41.3213 17.4151C42.3729 18.7063 43.6641 19.6634 45.3381 19.6634C46.5098 19.6634 47.4905 19.2085 47.4905 18.2284C47.4905 17.1997 46.2709 16.695 44.8359 16.2676C42.8757 15.6459 40.46 14.7604 40.46 12.3217C40.46 10.2172 42.5646 8.42441 45.2186 8.42441C47.9691 8.42441 49.5708 10.0031 50.3119 11.6771L48.3064 12.7044C48.0392 12.1089 47.6062 11.6029 47.0593 11.2468C46.5124 10.8906 45.8745 10.6993 45.2218 10.6957C44.0718 10.6957 43.2131 11.2937 43.2131 12.1786C43.2131 13.2545 44.2654 13.6129 45.724 14.0672C47.7327 14.6889 50.2436 15.4543 50.2436 17.9888C50.2436 20.5233 47.8285 21.9347 45.2461 21.9347C44.1247 21.9357 43.0209 21.6562 42.0353 21.1215C41.0496 20.5869 40.2133 19.8142 39.6026 18.8737L41.3213 17.4151ZM58.3232 8.42377C62.1732 8.42377 64.9946 11.4848 64.9946 15.1674C64.9946 18.873 61.9579 21.9347 58.2752 21.9347C54.5926 21.9347 51.5559 18.8737 51.5559 15.1674C51.5559 11.4848 54.6405 8.42377 58.3232 8.42377V8.42377ZM58.2733 19.4244C60.5689 19.4244 62.3623 17.5352 62.3623 15.168C62.3623 12.8245 60.5689 10.9353 58.2733 10.9353C55.9535 10.9353 54.1843 12.8009 54.1843 15.168C54.1843 17.5115 55.9535 19.4244 58.2733 19.4244ZM66.7861 8.78347H69.297V11.1985H69.3449C70.2061 9.66516 71.4251 8.42441 73.5776 8.42441C76.3754 8.42441 77.9055 10.529 77.9055 13.4941V21.5762H75.1583V13.9241C75.1583 12.1786 74.513 10.8631 72.7943 10.8631C70.6419 10.8631 69.5417 12.9676 69.5417 14.9521V21.5762H66.7944L66.7861 8.78347ZM85.6823 14.1151H88.1932V13.3024C88.1932 11.9869 87.4041 10.9826 85.8497 10.9826C84.3674 10.9826 83.0283 12.0112 82.3587 13.4698L80.0388 12.346C81.1154 9.88238 83.2915 8.47169 85.874 8.47169C88.8129 8.47169 90.9437 10.1967 90.9437 13.3024V18.8979C90.9437 19.1848 90.9916 19.3043 91.3021 19.3043H92.2604V21.5762H90.515C89.4148 21.5762 88.6736 20.9303 88.6736 19.5432V18.9216H88.5542C87.6929 20.7872 85.9474 21.8605 84.0103 21.8605C81.9543 21.8605 80.0171 20.6652 80.0171 18.1549C80.0171 15.6447 82.4565 14.1132 85.6842 14.1132L85.6823 14.1151ZM84.5604 19.5892C86.2854 19.5892 87.9798 18.1549 88.1951 16.0261H85.8311C84.0377 16.0261 82.7702 16.672 82.7702 17.9869C82.7702 18.9912 83.5113 19.5892 84.5636 19.5892H84.5604ZM94.1765 4H96.9238V18.8258C96.9238 19.1605 96.9474 19.3043 97.3538 19.3043H99.0788V21.5762H96.4159C94.6697 21.5762 94.1676 20.4524 94.1676 18.85L94.1765 4Z" fill="#1EB2F5"/>
</svg>
