<svg width="178" height="38" viewBox="0 0 178 38" fill="none" xmlns="http://www.w3.org/2000/svg">
<g clip-path="url(#clip0_2827_36583)">
<path d="M103.87 26.2995V23.3729H98.0335V14.6102H103.87V11.6893H97.3188V8.76837H106.791V17.5367H100.966V20.4576H106.791V29.2091H97.3188V26.2995H103.87ZM80.4855 19C80.4855 10.136 87.6668 2.94342 96.5421 2.94342C105.417 2.94342 112.604 10.136 112.604 19C112.604 27.864 105.412 35.0622 96.5421 35.0622C87.6724 35.0622 80.4855 27.8753 80.4855 19ZM96.5421 38.0056C107.038 38.0056 115.548 29.5018 115.548 19C115.548 8.49822 107.044 0 96.5477 0C86.0516 0 77.5421 8.50385 77.5421 19C77.5421 29.4961 86.0403 38.0056 96.5477 38.0056H96.5421ZM95.8386 11.6836V8.76274H86.3611V17.5367H92.1692V20.4633H86.3611V29.2148H95.8386V26.3051H89.282V23.3729H95.1182V14.6046H89.282V11.6893H95.8386V11.6836Z" fill="#C7000B"/>
<path d="M32.0681 20.5589V20.5139H39.1481C39.801 20.5139 40.7296 20.6208 41.4781 21.1049C42.176 21.5607 42.5249 22.2361 42.5249 23.1028C42.5249 23.8006 42.3392 24.3466 41.9621 24.718C41.2642 25.4102 40.0655 25.399 39.1931 25.399H32.0456V25.3596L32.0681 20.5589ZM32.0681 16.7601V12.4884H38.5516C39.694 12.4884 41.6075 12.4884 41.6075 14.7453C41.6075 15.5669 41.253 16.1522 40.5382 16.4787C39.9079 16.7713 39.1087 16.8051 38.5741 16.8051H32.0681V16.7544V16.7601ZM39.4126 29.1754C41.8721 29.1754 43.718 28.5844 44.9168 27.4082C46.1437 26.215 46.4082 24.6561 46.4082 23.5643C46.4082 21.1893 45.4064 19.529 43.431 18.6567L43.341 18.6173L43.4197 18.5666C44.3146 18.1052 45.4908 17.154 45.4908 14.3288C45.4908 12.7755 44.8999 11.3741 43.8306 10.3948C42.6543 9.31427 40.9434 8.74585 38.8724 8.74585H28.168V29.1754H39.407H39.4126Z" fill="#0D131A"/>
<path d="M4.06902 8.74585H0V29.181H4.06902V8.74585Z" fill="#0D131A"/>
<path d="M7.38949 18.7861C7.38949 20.7615 7.72154 22.3992 8.40815 23.7781C8.9822 24.9262 9.79263 25.8885 10.9632 26.8228C12.7923 28.2748 15.3531 29.0121 18.5891 29.0121H24.1664V25.1457H18.8987C15.9721 25.1457 13.8391 24.4253 12.5785 22.9901C11.6836 21.9771 11.2221 20.6039 11.2109 18.9211C11.1996 17.1089 11.7118 15.6682 12.7248 14.6383C14.0023 13.3494 16.0734 12.7135 18.893 12.7135H24.1608V8.88647H18.7805C16.9627 8.88647 15.4487 9.07783 14.1318 9.43239C12.8148 9.7982 11.7343 10.3497 10.8282 11.1264C9.53374 12.2013 7.37823 14.6383 7.37823 18.7861" fill="#0D131A"/>
<path d="M48.8733 18.7861C48.8733 20.7616 49.2166 22.5006 49.8976 23.9582C50.4829 25.2133 51.344 26.2995 52.4527 27.1774C54.1636 28.545 56.5892 29.1754 60.0786 29.1754H65.9598V25.3202H60.3937C57.4672 25.3202 55.3286 24.5548 54.0735 23.0747C53.1731 22.0166 52.7228 20.6265 52.7059 18.9156C52.6947 17.0527 53.2237 15.5726 54.2761 14.5033C55.5593 13.2145 57.6079 12.556 60.3994 12.556H65.9654V8.74023H60.2755C58.4633 8.74023 56.9438 8.9147 55.6268 9.28615C54.3099 9.65759 53.2237 10.2091 52.3289 10.9745C51.2821 11.8469 48.8733 14.3626 48.8733 18.7805" fill="#0D131A"/>
<path d="M127.428 8.71216H132.437L138.043 24.6224H138.099L143.564 8.71216H148.516V29.0347H145.128V13.3552H145.072L139.438 29.0347H136.506L130.873 13.3552H130.816V29.0347H127.428V8.71216Z" fill="#0D131A"/>
<path d="M164.365 25.7592C164.365 26.5584 164.534 26.8679 165.136 26.8679C165.333 26.8679 165.592 26.8679 165.935 26.8116V29.0628C165.451 29.2316 164.427 29.4342 163.886 29.4342C162.575 29.4342 161.635 28.9784 161.382 27.6389C160.099 28.894 158.022 29.4342 156.289 29.4342C153.643 29.4342 151.252 28.0104 151.252 25.1345C151.252 21.4651 154.184 20.8629 156.913 20.5533C159.249 20.1256 161.326 20.3845 161.326 18.4766C161.326 16.7995 159.592 16.4843 158.281 16.4843C156.457 16.4843 155.18 17.2216 155.039 18.8199H151.797C152.023 15.0323 155.242 13.9236 158.483 13.9236C161.359 13.9236 164.376 15.0886 164.376 18.1952V25.7648L164.365 25.7592ZM161.123 21.662C160.127 22.3149 158.562 22.2867 157.138 22.5456C155.743 22.7707 154.493 23.2829 154.493 24.9938C154.493 26.4458 156.345 26.8735 157.482 26.8735C158.906 26.8735 161.123 26.1363 161.123 24.0821V21.662Z" fill="#0D131A"/>
<path d="M167.663 8.71216H170.904V29.0347H167.663V8.71216Z" fill="#0D131A"/>
<path d="M174.236 8.71216H177.478V29.0347H174.236V8.71216Z" fill="#0D131A"/>
</g>
<defs>
<clipPath id="clip0_2827_36583">
<rect width="177.478" height="38" fill="white"/>
</clipPath>
</defs>
</svg>
