<svg version="1.1" id="Layer_1" xmlns="http://www.w3.org/2000/svg" xmlns:xlink="http://www.w3.org/1999/xlink" x="0px" y="0px"
	 viewBox="0 0 787.3 306.1" style="enable-background:new 0 0 787.3 306.1;" xml:space="preserve">
<title>Prosegur_Alarms_negro_RGB</title>
<g>
	<path d="M90.4,82c-0.3,0.7-0.6,1.7-0.9,2.8c-2.4,8.1-3.4,16.6-2.9,25l18.8-8.8L95.2,79.2C93.6,80,92,80.9,90.4,82 M86.9,112.8
		c0.7,7.6,2.5,15,5.3,22.1l23.8-11.1l-9.4-20.2L86.9,112.8z M95.6,142.3c3.6,7,8.2,13.3,13.6,19l19.9-9.3l-9.7-20.9L95.6,142.3z
		 M111.4,163.5c6.3,6.1,13.5,11.1,21.5,14.7c0.8,0.4,1.5,0.7,2.1,0.9c2-0.6,3.9-1.3,5.8-2.1l-10.4-22.3L111.4,163.5z M130.7,180.3
		c-8.2-3.9-15.6-9.1-22-15.5l-18.1,8.5C102.1,181.1,116.3,183.6,130.7,180.3 M106.6,162.6c-5.4-5.7-9.9-12.1-13.5-19.1l-20.5,9.6
		l-7.7,3.6c-0.5-1-1.1-2-1.6-3.1c-14.6-31.2-1-68.4,30.2-82.9c27.2-12.7,57.3-6,74.6,17.2l-7.8,3.8c-2.6-3.3-5.6-6.3-9-8.8
		l-18.9,8.8c5.3,5.5,9.7,11.6,13.3,18.4l25.8-12l2.7-1.2c0.8,1.3,1.5,2.7,2.1,4.1c14.6,31.2,1.1,68.4-30.2,82.9c0,0,0,0,0,0
		c-27.3,12.7-57.3,6.1-74.6-17.1l7.7-3.9c2.5,3.2,5.4,6.1,8.6,8.6L106.6,162.6z M89.7,136.1c-2.8-7-4.7-14.5-5.5-22l-18,8.4
		c-0.7,7.8,0.4,15.7,3.1,23.1L89.7,136.1z M83.9,111.1c-0.6-8.9,0.3-17.8,2.7-26.4c-10.8,8.5-18,20.8-20,34.4L83.9,111.1z
		 M131.8,150.9l20.8-9.7c-0.9-7.8-2.8-15.4-5.8-22.7L122,130L131.8,150.9z M155.3,139.9l18.4-8.6c0.6-8.1-0.6-16.2-3.6-23.8
		l-20.8,9.7C152.4,124.5,154.4,132.1,155.3,139.9 M173.4,134.6l-17.8,8.3c0.7,9,0,18-2.2,26.7C164.3,160.9,171.5,148.4,173.4,134.6
		 M152.9,144.2l-20,9.3l10.4,22.3c2.2-1,4.3-2.2,6.3-3.6c0.2-0.6,0.4-1.3,0.6-2.2C152.6,161.6,153.5,152.9,152.9,144.2 M108,99.9
		l19.7-9.2c-6.1-5.8-13.2-10.5-21-13.9c-1.2-0.5-2.1-0.9-2.9-1.1c-2,0.7-4,1.5-5.9,2.3L108,99.9z M130.4,89.5l18.3-8.6
		c-11.7-7.8-26.2-10.1-40.6-6.5C116.3,78.1,123.9,83.2,130.4,89.5 M129.8,92.8l-20.6,9.7l9.4,20.2l24.7-11.5
		C139.7,104.4,135.1,98.3,129.8,92.8 M682.1,107.6v17.2h15.2c2.3,0.1,4.6-0.2,6.8-1c2.7-1.2,4-3.6,4-7.2c0-3.9-1.3-6.5-3.9-7.8
		c-2.1-0.9-4.3-1.3-6.5-1.1L682.1,107.6z M710.8,98.2c2.4,1,4.5,2.5,6.2,4.5c1.4,1.6,2.5,3.4,3.3,5.4c0.8,2.1,1.3,4.4,1.2,6.7
		c0,3.1-0.8,6.2-2.3,9c-1.6,3-4.4,5.2-7.6,6.2c2.6,0.9,4.8,2.7,6.3,5.1c1.3,2.2,1.9,5.5,1.9,10v4.3c-0.1,2,0,4,0.3,6
		c0.2,1.5,1.1,2.8,2.4,3.6v1.5h-14.7c-0.4-1.4-0.7-2.6-0.9-3.4c-0.4-1.8-0.5-3.7-0.6-5.5l-0.1-6c0-4.1-0.8-6.8-2.3-8.2s-4.1-2-8-2
		h-13.8v25.1h-13.1v-64h31.4C704.9,96.6,708.4,97.1,710.8,98.2 M257.2,109.7c-1.7-1.4-4.2-2.1-7.3-2.1h-12.5v18.9h12.5
		c3.2,0,5.6-0.8,7.3-2.3c1.7-1.5,2.6-4,2.6-7.3C259.9,113.5,259,111.2,257.2,109.7 M267.4,132.8c-3.8,3.1-9.3,4.7-16.4,4.7h-13.6v23
		h-13.3v-64H252c6.4,0,11.6,1.7,15.4,4.9c3.8,3.3,5.7,8.4,5.7,15.3C273.1,124.3,271.2,129.7,267.4,132.8 M296.5,107.6v17.2h15.1
		c2.3,0.1,4.6-0.2,6.8-1c2.7-1.2,4-3.6,4-7.2c0-3.9-1.3-6.5-3.9-7.8c-2.1-0.9-4.3-1.3-6.5-1.1L296.5,107.6z M325.2,98.1
		c2.4,1,4.5,2.5,6.2,4.5c1.4,1.6,2.5,3.4,3.3,5.4c0.8,2.1,1.3,4.4,1.2,6.7c0,3.1-0.8,6.2-2.3,9c-1.6,3-4.3,5.2-7.6,6.2
		c2.6,0.9,4.8,2.7,6.3,5.1c1.2,2.2,1.9,5.5,1.9,10v4.3c-0.1,2,0,4,0.4,6c0.2,1.5,1.1,2.8,2.4,3.6v1.5h-14.7
		c-0.4-1.4-0.7-2.6-0.9-3.4c-0.3-1.8-0.5-3.7-0.6-5.5l-0.1-6c-0.1-4.1-0.8-6.8-2.3-8.2c-1.4-1.4-4.1-2-8-2h-13.9v25.1h-13.1v-64
		h31.4C319.3,96.6,322.8,97.1,325.2,98.1 M388.3,145.1c3.1-3.9,4.7-9.5,4.7-16.7c0-7.2-1.6-12.8-4.7-16.6c-3-3.9-7.7-6.1-12.6-5.9
		c-4.9-0.2-9.6,2-12.7,5.9c-3.2,3.9-4.7,9.5-4.7,16.7c0,7.2,1.6,12.8,4.7,16.7c3.1,3.9,7.8,6,12.7,5.9
		C380.6,151.2,385.3,149,388.3,145.1 M396.7,154.9c-4.8,5-11.8,7.5-21,7.5c-9.2,0-16.2-2.5-21-7.5c-6.5-6.1-9.7-14.9-9.7-26.4
		c0-11.7,3.2-20.5,9.7-26.4c4.8-5,11.8-7.5,21-7.5c9.2,0,16.2,2.5,21,7.5c6.5,5.9,9.7,14.7,9.7,26.4
		C406.4,140,403.2,148.8,396.7,154.9 M426.3,140.8c0.2,2.4,1,4.6,2.4,6.6c2.2,2.7,5.9,4,11.2,4c2.6,0.1,5.2-0.2,7.7-1
		c3.7-1.3,5.6-3.8,5.6-7.4c0.1-2-1-3.9-2.8-4.9c-2.7-1.5-5.7-2.5-8.7-3l-6.8-1.5c-6.7-1.5-11.3-3.1-13.8-4.9
		c-4.3-3-6.5-7.6-6.5-13.9c-0.1-5.5,2.2-10.7,6.3-14.3c4.2-3.8,10.3-5.7,18.4-5.7c6.2-0.2,12.3,1.7,17.2,5.4
		c4.8,3.6,7.3,8.7,7.5,15.6h-12.9c-0.2-3.9-1.9-6.6-5-8.2c-2.4-1.1-5.1-1.7-7.8-1.6c-2.9-0.1-5.8,0.6-8.3,2.1
		c-2,1.3-3.2,3.5-3.1,5.8c-0.1,2.1,1.1,4.2,3,5.1c1.3,0.8,4.1,1.6,8.3,2.6l11,2.6c4.8,1.2,8.5,2.7,11,4.6c3.8,3,5.7,7.4,5.7,13.1
		c0.1,5.6-2.4,11-6.7,14.6c-4.5,3.9-10.8,5.8-18.9,5.8c-8.3,0-14.9-1.9-19.7-5.7c-4.8-3.8-7.2-9-7.2-15.7L426.3,140.8z M523.3,107.9
		h-33.9v13.6h31.1v11.1h-31.1V149h35.5v11.4h-48.5v-64h47L523.3,107.9z M578.3,116.5c-0.8-4.1-3.6-7.5-7.4-9.2
		c-2.3-1-4.8-1.5-7.3-1.4c-4.9-0.1-9.6,2.1-12.7,5.9c-3.3,3.9-5,9.7-5,17.5s1.8,13.4,5.4,16.7c3.3,3.2,7.7,4.9,12.3,4.9
		c4,0.2,8-1.2,11-3.9c2.9-2.7,4.8-6.3,5.3-10.2H565v-10.7h26.7v34.3h-8.9l-1.3-8c-2,2.5-4.3,4.7-7,6.4c-3.9,2.3-8.4,3.4-13,3.3
		c-8.5,0-15.4-2.9-20.8-8.8c-5.6-5.9-8.5-14-8.5-24.2c0-10.4,2.9-18.7,8.6-24.9c5.7-6.3,13.3-9.4,22.6-9.4c8.1,0,14.7,2.1,19.6,6.2
		c4.8,3.8,7.9,9.4,8.5,15.5L578.3,116.5z M604.4,96.5H618v39.4c0,4.4,0.5,7.6,1.6,9.6c1.6,3.6,5.2,5.4,10.6,5.4
		c5.4,0,8.9-1.8,10.6-5.4c1-2,1.6-5.2,1.6-9.6V96.5h13.6v39.4c0,6.8-1.1,12.1-3.2,15.9c-3.9,6.9-11.5,10.4-22.5,10.4
		c-11.1,0-18.6-3.5-22.5-10.4c-2.1-3.8-3.2-9.1-3.2-15.9L604.4,96.5z"/>
	<path d="M241.3,192.5h11.4l17,48.1h-10.9l-3.2-9.9h-17.7l-3.2,9.9h-10.6L241.3,192.5z M240.7,222.4H253l-6.1-18.9L240.7,222.4z"/>
	<path d="M275.8,192.5h10V232h24v8.6h-34V192.5z"/>
	<path d="M330.4,192.5h11.4l17,48.1h-10.9l-3.2-9.9H327l-3.3,9.9h-10.5L330.4,192.5z M329.7,222.4H342l-6.1-18.9L329.7,222.4z"/>
	<path d="M395.7,193.7c1.7,0.8,3.3,1.9,4.5,3.4c1,1.2,1.8,2.5,2.4,4c0.6,1.6,0.9,3.3,0.9,5.1c0,2.4-0.6,4.7-1.7,6.7
		c-1.2,2.3-3.3,3.9-5.7,4.7c2,0.7,3.6,2,4.7,3.8c0.9,1.6,1.4,4.1,1.4,7.5v3.2c-0.1,1.5,0,3,0.3,4.5c0.2,1.1,0.9,2.1,1.9,2.7v1.2
		h-11.1c-0.3-1.1-0.5-1.9-0.6-2.6c-0.3-1.4-0.4-2.8-0.4-4.1l-0.1-4.5c0-3.1-0.6-5.1-1.6-6.1s-2.9-1.5-5.7-1.5H375v18.9h-9.8v-48h23
		C390.7,192.4,393.3,192.8,395.7,193.7z M375,200.8v12.9h10.8c1.7,0.1,3.3-0.2,4.8-0.8c1.9-0.9,2.9-2.7,2.9-5.4
		c0-2.9-0.9-4.9-2.8-5.9c-1.5-0.7-3.1-0.9-4.6-0.9H375z"/>
	<path d="M445.1,192.5h14.5v48.1h-9.4V208c0-0.9,0-2.2,0-3.9c0-1.7,0-3,0-3.9l-9.1,40.4h-9.7l-9-40.4c0,0.9,0,2.2,0,3.9
		c0,1.7,0,3,0,3.9v32.5h-9.4v-48.1h14.7l8.8,37.8L445.1,192.5z"/>
	<path d="M476.1,225.7c0.1,1.8,0.8,3.5,1.8,4.9c1.7,2,4.5,3,8.6,3c2,0.1,4-0.2,5.9-0.8c2.9-1,4.3-2.9,4.3-5.6c0-1.5-0.8-2.9-2.1-3.7
		c-2.1-1.1-4.3-1.9-6.7-2.3l-5.3-1.2c-5.1-1.1-8.6-2.3-10.5-3.7c-3.2-2.2-4.9-5.7-4.9-10.4c-0.1-4.1,1.7-8,4.8-10.7
		c3.2-2.8,7.8-4.3,14-4.3c4.7-0.1,9.3,1.3,13.1,4c3.6,2.7,5.5,6.6,5.7,11.7h-9.7c0-2.6-1.5-5-3.9-6.2c-1.9-0.9-3.9-1.3-6-1.2
		c-2.2-0.1-4.4,0.4-6.4,1.6c-1.5,0.9-2.4,2.6-2.4,4.4c-0.1,1.6,0.9,3.1,2.3,3.9c2.1,0.9,4.2,1.6,6.4,2l8.4,2c3,0.6,5.8,1.8,8.3,3.5
		c2.9,2.3,4.3,5.5,4.3,9.8c0.1,4.3-1.8,8.3-5.1,11c-3.4,2.9-8.2,4.4-14.4,4.4c-6.3,0-11.3-1.4-14.9-4.3c-3.6-2.8-5.6-7.2-5.4-11.8
		L476.1,225.7z"/>
</g>
</svg>
