<?xml version="1.0" encoding="UTF-8"?>
<svg xmlns="http://www.w3.org/2000/svg"
     width="141" height="57"
     viewBox="0 0 141 57"
     role="img"
     aria-label="edenor logo">
  <path fill="#4D97FA" fill-rule="evenodd" clip-rule="evenodd"
        d="M138.927 13.352c-.914 3.272-3.952 5.662-7.54 5.636a7.758 7.758 0 0 1-3.137-.685c.427 2.94 2.959 5.21 6.046 5.233 3.403.025 6.185-2.69 6.21-6.065a6.048 6.048 0 0 0-1.579-4.12Z"/>
  <path fill="#02E700" fill-rule="evenodd" clip-rule="evenodd"
        d="M134.386 11.313a6.161 6.161 0 0 1 4.54 2.039 7.593 7.593 0 0 0 .281-2.002c.032-4.251-3.415-7.722-7.706-7.754-4.282-.031-7.784 3.389-7.815 7.64-.024 3.142 1.852 5.854 4.564 7.068a5.99 5.99 0 0 1-.073-.923c.025-3.378 2.805-6.092 6.209-6.068Z"/>
  <path fill="#58B847" fill-rule="evenodd" clip-rule="evenodd"
        d="M138.927 13.353a6.159 6.159 0 0 0-4.54-2.038c-3.404-.026-6.184 2.69-6.209 6.067-.003.315.028.62.072.923a7.758 7.758 0 0 0 3.137.684c3.588.027 6.626-2.363 7.54-5.636Z"/>
  <path fill="#1D558C" fill-rule="evenodd" clip-rule="evenodd"
        d="M138.927 13.353a6.159 6.159 0 0 0-4.54-2.038c-3.404-.026-6.184 2.69-6.209 6.067-.003.315.028.62.072.923a7.758 7.758 0 0 0 3.137.684c3.588.027 6.626-2.363 7.54-5.636ZM10.463 18.352c-3.602-.026-6.239 1.056-7.914 3.247C.878 23.793.028 26.73.001 30.422c-.015 1.877.197 3.531.637 4.964.437 1.44 1.005 2.564 1.703 3.376.111.134.229.254.351.372l-.014.004c1.78 1.956 4.5 2.944 8.169 2.971 1.527.012 3.16-.243 4.903-.769 1.738-.523 2.612-1.24 2.619-2.148.003-.47-.247-1.111-.755-1.929-.508-.814-.97-1.225-1.388-1.23-.028 0-.614.212-1.755.628-1.143.422-2.861.646-4.115.637-1.146-.008-2.228-.458-3.014-.97-1.047-.683-1.635-2.025-1.773-4.02-.03-1.55-.004-1.542.053-3.824 0-.021.003-.04.004-.058.035-.502.065-.82.065-.82.217-1.553.663-2.656 1.332-3.408.788-.88 1.875-1.314 3.27-1.304 1.389.01 2.48.56 3.266 1.657.784 1.09 1.247 2.51 1.386 4.09l-2.065.119c-1.14.063-2.278.132-3.469.195-.202.012-.402.033-.6.052l-.266.027a1.035 1.035 0 0 0-.946.961 1.232 1.232 0 0 0 1.125 1.316c1 .081 2.033.162 3.075.237 1.283.098 5.45.22 6.718.316l2.153-3.547c.005-3.063-.797-4.564-2.505-6.693-1.733-2.16-4.298-3.247-7.702-3.272ZM54.546 18.676c-3.602-.026-6.24 1.057-7.91 3.247-1.673 2.195-2.523 5.132-2.551 8.823-.014 1.878.199 3.531.637 4.964.44 1.44 1.008 2.564 1.701 3.376.115.134.231.254.352.372l-.012.004c1.778 1.956 4.5 2.944 8.17 2.972 1.526.01 3.16-.244 4.904-.77 1.737-.523 2.61-1.24 2.617-2.148.004-.47-.247-1.111-.757-1.929-.507-.814-.967-1.225-1.387-1.229-.027 0-.615.211-1.755.628-1.143.42-2.86.646-4.111.637-1.15-.01-2.233-.459-3.017-.97-1.045-.684-1.636-2.026-1.773-4.02-.028-1.55-.003-1.543.052-3.825.003-.021.003-.04.005-.058.033-.502.063-.82.063-.82.222-1.552.663-2.656 1.334-3.408.788-.88 1.876-1.314 3.266-1.304 1.395.01 2.483.56 3.27 1.657.785 1.09 1.247 2.51 1.386 4.09l-2.064.119c-1.14.063-2.278.132-3.47.195-.2.012-.401.033-.6.052-.088.01-.179.019-.267.027-.51.045-.913.453-.946.961a1.232 1.232 0 0 0 1.125 1.316c1 .081 2.034.162 3.075.237 1.285.098 5.448.22 6.72.316l2.154-3.547c.001-3.063-.797-4.563-2.506-6.693-1.732-2.16-4.301-3.247-7.705-3.272ZM77.107 18.84c-3.714-.027-7.299.788-10.737 2.454l-.094 12.598-.065 8.672 2.414.018s3.209.104 3.232-2.951l.022-3.082.02-2.615.074-9.814a24.9 24.9 0 0 1 4.344-.372c1.218.008 2.216.127 2.994.356.773.239 1.329.581 1.666 1.034.34.46.564.893.68 1.309.107.417.163.933.16 1.552l-.046 6.007-.065 8.672 2.408.017s3.21.105 3.233-2.95l.012-1.568.031-4.13.042-5.531c.022-3.032-.88-5.402-2.7-7.1-1.825-1.692-4.364-2.551-7.625-2.576ZM104.152 36.828c-.895.999-2.26 1.492-4.102 1.479-1.846-.014-3.207-.527-4.092-1.54-.882-1.01-1.313-2.952-1.292-5.829.022-2.875.482-4.817 1.38-5.822.899-1.007 2.268-1.506 4.113-1.492 1.843.014 3.2.532 4.08 1.552.871 1.018 1.303 2.966 1.282 5.842-.022 2.877-.483 4.813-1.369 5.81Zm-3.974-17.775c-3.552-.026-6.293.977-8.212 3.018-1.921 2.04-2.893 4.978-2.922 8.812-.029 3.84.9 6.794 2.79 8.858 1.888 2.07 4.614 3.116 8.167 3.142 3.556.026 6.295-.98 8.219-3.021 1.916-2.036 2.89-4.978 2.918-8.817.029-3.834-.9-6.786-2.786-8.854-1.893-2.068-4.617-3.112-8.174-3.138ZM124.401 19.19a27.993 27.993 0 0 0-5.972.687c-2.032.434-3.383.777-4.053 1.02-.674.24-1.204.451-1.586.628l-.094 12.71-.065 8.672 2.411.017s3.213.105 3.236-2.95l.014-1.888.029-3.81.071-9.584c1.675-.47 3.686-.71 6.036-.724l-.027-4.779ZM36.666 35.138c-.012 1.667-1.437 2.485-4.268 2.464-1.782-.013-3.028-.624-3.735-1.844-.706-1.215-1.05-3.187-1.029-5.914.02-2.607.49-4.423 1.412-5.454.919-1.031 2.258-1.538 4.008-1.525 1.372.024 2.608.16 3.701.412l-.089 11.86Zm2.595-25.118-2.407-.018-.066 8.9a21.968 21.968 0 0 0-3.885-.385c-3.487-.026-6.166.955-8.038 2.942-1.873 1.992-2.825 4.87-2.853 8.64-.016 2.074.236 3.9.758 5.486.519 1.587 1.16 2.79 1.916 3.614a9.322 9.322 0 0 0 2.67 2.015c1.023.522 1.921.844 2.69.974a14.91 14.91 0 0 0 2.317.198c3.337.025 5.82-.725 7.454-2.248 1.634-1.524 2.458-3.353 2.474-5.484l.096-12.91.062-8.268.004-.46c.022-3.057-3.192-2.996-3.192-2.996Z"/>
</svg>
