<svg id="Capa_1" data-name="Capa 1" xmlns="http://www.w3.org/2000/svg" viewBox="0 0 94.41 65.4">
  <defs>
    <style>
      .cls-1, .cls-2 {
        fill: #14a5df;
      }

      .cls-2 {
        fill-rule: evenodd;
      }
    </style>
  </defs>
  <polygon class="cls-2" points="88.49 0 93.74 0 93.74 35.47 93.74 35.58 88.49 0"/>
  <path class="cls-2" d="M75.64,1.33V0h10.58l4.03,51.86c-1.26,2.42-2.83,4.5-4.69,6.23-.44.41-.89.8-1.36,1.16L75.64,1.33Z"/>
  <path class="cls-2" d="M71.47,46.87c.35-.27.69-.57,1-.89,2.12-2.13,3.17-5.45,3.17-9.96V6.7l4.29,55.24c-1.19.59-2.45,1.08-3.79,1.5-1.09.34-2.23.64-3.4.88l-1.28-17.45Z"/>
  <polygon class="cls-2" points="34.14 36.18 34.14 35.93 34.14 0 41.56 0 34.14 36.18"/>
  <path class="cls-2" d="M63.76,65.18c-1.55,0-3.05-.07-4.5-.2l1.12-16.23c1.09.29,2.28.43,3.56.43,2.09,0,3.93-.37,5.53-1.1l1.99,16.48c-2.41.41-4.98.62-7.7.62"/>
  <path class="cls-2" d="M42.38,58.36c-.1-.09-.19-.18-.29-.27-2.56-2.41-4.52-5.45-5.9-9.14-.91-2.44-1.52-5.17-1.82-8.19L45.72,0h6.52v9.8l-9.86,48.56Z"/>
  <path class="cls-2" d="M57.92,64.84c-2.31-.29-4.48-.75-6.5-1.39-1.77-.56-3.4-1.26-4.91-2.11l5.74-43.54v17.78c0,4.63,1.05,8.06,3.17,10.28.72.75,1.52,1.38,2.4,1.87l.11,17.12Z"/>
  <rect class="cls-1" x="8.12" y="20.79" width="7.48" height="23.72"/>
  <rect class="cls-1" x="0" y="28.91" width="23.72" height="7.48"/>
</svg>
