<svg xmlns="http://www.w3.org/2000/svg" width="110.505" height="36.545" viewBox="0 0 110.505 36.545">
  <g id="logo_prex_color" transform="translate(0)">
    <path id="Trazado_2415" data-name="Trazado 2415" d="M361.421,241.362a5.944,5.944,0,1,0,0-11.877h-8.05v11.877Zm-15.6-18.555h15.6c8.427,0,13.957,5.419,13.957,12.7s-5.529,12.535-13.957,12.535h-8.05V258.8h-7.554Z" transform="translate(-345.817 -222.807)" fill="#0f0927"/>
    <path id="Trazado_2416" data-name="Trazado 2416" d="M363.594,240.35c0-14.777,13.519-14.343,18.555-13.085l-.876,6.678c-6.075-1.861-10.564.821-10.564,5.8v15.818h-7.116Z" transform="translate(-331.026 -219.568)" fill="#0f0927"/>
    <path id="Trazado_2417" data-name="Trazado 2417" d="M396.1,238.482a7.554,7.554,0,0,0-14.614,0Zm-7.336-11.712c9.36,0,15.983,7.773,14.559,17.132H381.379a7.7,7.7,0,0,0,7.881,6.02,8.061,8.061,0,0,0,7.226-4.1l5.857,2.627a14.842,14.842,0,0,1-13.3,7.609c-8.539,0-15.052-6.35-15.052-14.669a14.444,14.444,0,0,1,14.777-14.614" transform="translate(-322.375 -219.509)" fill="#0f0927"/>
    <path id="Trazado_2418" data-name="Trazado 2418" d="M400.56,241.3l-10.291-14.231h8.759l5.91,8.539,6.077-8.539h8.319l-10.291,13.957,10.291,14.231h-8.757l-5.967-8.592-6.075,8.592h-8.266Z" transform="translate(-308.83 -219.262)" fill="#0f0927"/>
    <path id="Trazado_2419" data-name="Trazado 2419" d="M419.334,227.069h-8.319L390.27,255.257h8.382Z" transform="translate(-308.829 -219.26)" fill="#5c19ae"/>
  </g>
</svg>
