<svg id="Capa_1" data-name="Capa 1" xmlns="http://www.w3.org/2000/svg" width="119.88" height="20.75" viewBox="0 0 119.88 20.75">
  <defs>
    <style>
      .cls-1 {
        fill: #282828;
      }

      .cls-1, .cls-2, .cls-3 {
        stroke-width: 0px;
      }

      .cls-2 {
        fill: #bc92ff;
      }

      .cls-3 {
        fill: #824aed;
      }
    </style>
  </defs>
  <g>
    <path class="cls-1" d="M119.88,19.63V7.9c0-.94-.76-1.36-.76-1.36h0c-1.13-.82-3.61-2.26-6.52-2.47-.71-.05-1.32-.05-1.36-.05-5.1.19-8.31,3.87-8.31,8.6s3.41,8.12,7.86,8.12c0,0,3.16,0,4.75-1.64v.55c0,.45.22.74.82.74h2.81c.78,0,.71-.62.71-.75h0ZM114.82,15.52c-.48.71-1.22,1.2-2.13,1.43-.67.18-1.19.14-1.19.14-2.35,0-4.25-1.38-4.25-4.76,0-2.6,1.76-4.57,3.93-4.57h.29c1.69,0,3.08.77,3.71,1.13.27.16.33.47.33.47.46,2.5.14,4.92-.69,6.16Z"/>
    <path class="cls-1" d="M74,3.86c-2.81,0-5.65,1.06-7.05,1.67-.03.02-.89.44-.89,1.52v12.5s0,.83.96.83h2.43c.96,0,.96-.83.96-.83v-11.3s1.7-.82,3.58-.82c2.24,0,3.71,1.2,3.71,3.92v8.21s0,.83.96.83h2.43c.96,0,.96-.83.96-.83v-8.57c0-4.51-4.13-7.12-8.07-7.12h.02Z"/>
    <path class="cls-1" d="M28.5.77v16.09c0,.94.77,1.36.77,1.36h0c1.13.82,3.61,2.26,6.53,2.48.71.05,1.32.05,1.36.05,5.1-.19,8.31-4.04,8.31-8.77s-3.41-8.11-7.87-8.11c0,0-2.18-.14-4.74.94V.74c0-.41-.33-.74-.74-.74h-2.87c-.41,0-.74.33-.74.74v.03h-.01ZM37.21,16.83h-.29c-1.69,0-3.08-.76-3.71-1.13-.21-.12-.3-.32-.34-.5-.16-.56-.23-1.31-.24-2.03-.42-6.08,4.26-5.66,4.26-5.66,2.35,0,4.25,1.38,4.25,4.76,0,2.6-1.76,4.57-3.93,4.57h0Z"/>
    <path class="cls-1" d="M55.65,3.86c-5.65,0-8.68,3.89-8.68,8.74,0,4.28,3.02,8.14,8.29,8.14,5.65,0,8.68-3.86,8.68-8.71,0-4.28-3.02-8.17-8.29-8.17ZM55.65,17.15c-2.89,0-4.16-1.92-4.16-5.12,0-2.66,1.27-4.58,3.77-4.58,2.86,0,4.16,1.92,4.16,5.15,0,2.63-1.24,4.55-3.77,4.55Z"/>
    <path class="cls-1" d="M100.97.74c0-.41-.33-.74-.74-.74h-2.87c-.41,0-.74.33-.74.74v4.06c-2.57-1.08-4.74-.94-4.74-.94-4.45,0-7.87,3.35-7.87,8.11s3.21,8.58,8.31,8.77c.05,0,.65,0,1.36-.05,2.92-.22,5.4-1.65,6.53-2.47h0s.77-.42.77-1.36V.74h0ZM88.33,12.26c0-3.38,1.9-4.76,4.25-4.76,0,0,4.68-.42,4.26,5.66-.01.72-.07,1.47-.24,2.03-.04.19-.13.39-.34.5-.63.37-2.02,1.13-3.71,1.13h-.29c-2.18,0-3.93-1.96-3.93-4.57h0Z"/>
  </g>
  <path class="cls-2" d="M6.82,12.24H.09c-.12-.74-.12-1.52.04-2.33.58-2.88,3.06-5.05,5.98-5.24,1.7-.11,3.27.44,4.49,1.41-2.06,1.36-3.49,3.58-3.79,6.15h0Z"/>
  <path class="cls-3" d="M24.29,17.48c0-5.25,0-11.92-6.67-13.47-2.53-.58-5,.78-7.01,2.11,2.22,1.77,4.14,4.68,3.64,11.33l10.04.03Z"/>
</svg>
